PathFileType	4	(X/Y/Z)	/Users/itak/Documents/Research/Walk-IL/dataset/trc/00420_00012.trc
DataRate	CameraRate	NumFrames	NumMarkers	Units	OrigDataRate	OrigDataStartFrame	OrigNumFrames
100.000000	100.000000	4	53	mm	100.000000	539	617
Frame#	Time	RPSI			LPSI			L3			STRN			T10			C7			CLAV			RBAK			LBAK			LSHO			LUPA			LAEL			LAOL			LWTS			LWPS			LFRA			LIFD			LHPS			LHTS			RSHO			RUPA			RAEL			RAOL			RWTS			RWPS			RFRA			RIFD			RHTS			RHPS			RBHD			LFHD			RFHD			LBHD			LHIP			RHIP			RASI			LASI			LKNE			LTHI			LANK			LTIP			LTOE			LMT1			LMT5			LHEE			RKNE			RTHI			RANK			RTIP			RTOE			RMT1			RMT5			RHEE			
		X1	Y1	Z1	X2	Y2	Z2	X3	Y3	Z3	X4	Y4	Z4	X5	Y5	Z5	X6	Y6	Z6	X7	Y7	Z7	X8	Y8	Z8	X9	Y9	Z9	X10	Y10	Z10	X11	Y11	Z11	X12	Y12	Z12	X13	Y13	Z13	X14	Y14	Z14	X15	Y15	Z15	X16	Y16	Z16	X17	Y17	Z17	X18	Y18	Z18	X19	Y19	Z19	X20	Y20	Z20	X21	Y21	Z21	X22	Y22	Z22	X23	Y23	Z23	X24	Y24	Z24	X25	Y25	Z25	X26	Y26	Z26	X27	Y27	Z27	X28	Y28	Z28	X29	Y29	Z29	X30	Y30	Z30	X31	Y31	Z31	X32	Y32	Z32	X33	Y33	Z33	X34	Y34	Z34	X35	Y35	Z35	X36	Y36	Z36	X37	Y37	Z37	X38	Y38	Z38	X39	Y39	Z39	X40	Y40	Z40	X41	Y41	Z41	X42	Y42	Z42	X43	Y43	Z43	X44	Y44	Z44	X45	Y45	Z45	X46	Y46	Z46	X47	Y47	Z47	X48	Y48	Z48	X49	Y49	Z49	X50	Y50	Z50	X51	Y51	Z51	X52	Y52	Z52	X53	Y53	Z53	

540	5.39	269.8739929199219	987.8889770507812	548.5281982421875	400.8721313476562	980.443359375	540.595458984375	332.5184326171875	1053.742797851562	546.5900268554688	334.6024780273438	1213.539672851562	780.5650024414062	335.6464538574219	1156.610717773438	535.7780151367188	345.0687866210938	1407.11279296875	564.8380737304688	335.6480102539062	1332.1630859375	725.4747924804688	275.2477111816406	1259.836181640625	524.6072998046875	448.4717102050781	1369.926391601562	555.3448486328125	493.9931030273438	1389.029541015625	643.2005004882812	568.7943725585938	1273.868286132812	635.347900390625	596.6651000976562	1082.6640625	689.2224731445312	540.57666015625	1050.667358398438	632.509521484375	550.3173217773438	880.9244995117188	808.9133911132812	618.0111083984375	864.3392333984375	766.0298461914062	606.769775390625	982.1240844726562	722.7029418945312	557.7899780273438	702.9197998046875	830.370849609375	610.9664306640625	780.727294921875	790.606689453125	570.9197998046875	787.746826171875	839.4710693359375	185.5641937255859	1387.5458984375	622.3987426757812	125.3294143676758	1321.067749023438	616.0050659179688	75.39797973632812	1069.072143554688	689.3221435546875	163.4670867919922	1047.808837890625	662.2084350585938	109.8799819946289	895.9934692382812	871.3221435546875	46.45114517211914	876.70458984375	839.1162109375	60.84181213378906	1014.531860351562	733.1235961914062	107.566650390625	728.5581665039062	918.3604736328125	90.74346160888672	800.3528442382812	919.7330322265625	46.23465728759766	791.8790893554688	869.1655883789062	258.5752258300781	1591.810302734375	590.661376953125	393.7546691894531	1611.872802734375	733.9881591796875	272.9408569335938	1614.71240234375	722.337890625	417.6253662109375	1584.954223632812	588.57080078125	515.485595703125	966.6544799804688	625.4270629882812	158.0086364746094	962.6115112304688	634.1699829101562	215.5043640136719	969.4669799804688	766.0208129882812	478.4977722167969	964.7962036132812	742.4640502929688	500.21240234375	473.6961975097656	652.5108642578125	510.2296447753906	616.395751953125	651.2192993164062	465.6156005859375	40.17111206054688	546.6566162109375	495.669921875	243.5026245117188	598.3803100585938	405.2189331054688	40.09999847412109	763.1176147460938	373.8222961425781	43.06038284301758	682.0651245117188	478.8236999511719	38.81752777099609	672.7782592773438	408.6941223144531	37.09148788452148	509.0386352539062	183.1268615722656	472.2683410644531	650.012939453125	161.3360900878906	733.2578735351562	700.78076171875	227.7495727539062	50.91423416137695	602.5031127929688	198.9113464355469	347.2244262695312	655.9957885742188	284.2869567871094	38.90188217163086	784.2918090820312	317.1927795410156	43.10450744628906	710.5358276367188	218.1726684570312	43.15028381347656	686.9959106445312	284.1673583984375	39.00441741943359	532.2510986328125	
541	5.4	269.7384643554688	987.9091186523438	548.8117065429688	400.773193359375	980.4757690429688	540.6694946289062	332.4478149414062	1053.73876953125	546.812255859375	334.6930847167969	1213.479370117188	780.826904296875	335.5343933105469	1156.604858398438	536.074462890625	345.1134033203125	1407.097534179688	565.1415405273438	335.5876770019531	1332.107543945312	725.75439453125	275.2968444824219	1259.812377929688	524.8873291015625	448.4729309082031	1369.966674804688	555.64306640625	493.9044189453125	1389.103515625	643.5130004882812	568.89306640625	1273.9931640625	635.7367553710938	596.927001953125	1082.872436523438	689.7592163085938	540.843017578125	1050.790893554688	633.0867309570312	550.8801879882812	881.5008544921875	810.0570678710938	618.44140625	864.7091064453125	767.063720703125	607.1549682617188	982.4078979492188	723.4286499023438	558.4634399414062	703.6323852539062	832.4150390625	611.4474487304688	781.25048828125	792.0403442382812	571.5162963867188	788.5166015625	841.0180053710938	185.5190887451172	1387.41162109375	622.7459716796875	125.401237487793	1320.910522460938	616.3010864257812	75.80158996582031	1068.628540039062	689.0842895507812	163.8775939941406	1047.640869140625	661.8408203125	110.6289749145508	894.6358032226562	870.1952514648438	47.11458587646484	875.51123046875	837.9189453125	61.27672576904297	1013.960388183594	732.658447265625	108.6166381835938	726.7347412109375	915.7274169921875	91.68545532226562	798.4877319335938	917.794677734375	47.04885482788086	790.4178466796875	867.225830078125	258.6942749023438	1591.838989257812	591.0220947265625	393.8789978027344	1611.825073242188	734.3103637695312	273.0598754882812	1614.77197265625	722.6588134765625	417.5943908691406	1584.89306640625	588.8214721679688	515.4528198242188	966.6647338867188	625.2757568359375	157.9237365722656	962.5680541992188	634.6122436523438	215.9047698974609	969.742919921875	766.6918334960938	478.62548828125	964.7657470703125	742.4463500976562	500.3587951660156	473.6937255859375	652.233642578125	510.4037475585938	616.4113159179688	650.9660034179688	465.6167297363281	40.14786911010742	546.6458129882812	495.7430114746094	243.4808502197266	598.1896362304688	405.2383422851562	40.11575698852539	763.1061401367188	373.7636108398438	43.04253768920898	682.0542602539062	478.864990234375	38.8251953125	672.775146484375	408.7136535644531	37.07975769042969	509.0302124023438	183.1986999511719	472.2332458496094	650.0925903320312	161.5222320556641	733.1905517578125	701.1535034179688	227.8161468505859	50.9375	602.5090942382812	199.0167999267578	347.1974792480469	656.044189453125	284.2748413085938	38.88546752929688	784.3046264648438	317.2416381835938	43.08125305175781	710.5413818359375	218.2155151367188	43.15853881835938	686.9968872070312	284.2052001953125	38.99307250976562	532.2587280273438	
542	5.41	269.6339111328125	987.9387817382812	549.0997924804688	400.6847534179688	980.500244140625	540.7371826171875	332.3805847167969	1053.721069335938	547.0286254882812	334.7942810058594	1213.407592773438	781.07275390625	335.4324645996094	1156.582763671875	536.3479614257812	345.1423034667969	1407.071411132812	565.4247436523438	335.5238952636719	1332.037841796875	726.0192260742188	275.3629150390625	1259.772216796875	525.1456909179688	448.4800720214844	1370.002319335938	555.9271850585938	493.8217163085938	1389.177368164062	643.8065185546875	569.0083618164062	1274.11962890625	636.121826171875	597.1569213867188	1083.078491210938	690.3062744140625	541.0983276367188	1050.905029296875	633.673095703125	551.3693237304688	882.0755004882812	811.2039184570312	618.8538818359375	865.087646484375	768.1195678710938	607.5067749023438	982.6942138671875	724.1721801757812	559.0380859375	704.3380126953125	834.4158325195312	611.8782348632812	781.771728515625	793.4763793945312	572.0430908203125	789.2759399414062	842.5462036132812	185.4805145263672	1387.263916015625	623.0672607421875	125.4964447021484	1320.7392578125	616.5667724609375	76.15483093261719	1068.160888671875	688.7434692382812	164.2699432373047	1047.444213867188	661.40478515625	111.3234100341797	893.2789916992188	868.980224609375	47.74527740478516	874.30517578125	836.6376953125	61.69242858886719	1013.359802246094	732.1090087890625	109.5876388549805	724.9493408203125	913.07373046875	92.56478118896484	796.6441040039062	915.7993774414062	47.7891960144043	788.9671020507812	865.2137451171875	258.7939758300781	1591.8662109375	591.3790283203125	394.0084228515625	1611.757690429688	734.6053466796875	273.1676940917969	1614.814819335938	722.9718017578125	417.5561828613281	1584.819458007812	589.04638671875	515.44384765625	966.6615600585938	625.0958862304688	157.8539733886719	962.53564453125	635.046142578125	216.3482971191406	969.9649658203125	767.3240356445312	478.808349609375	964.722412109375	742.4232788085938	500.5148315429688	473.6831359863281	651.9584350585938	510.5883178710938	616.4158325195312	650.713623046875	465.6117553710938	40.12144470214844	546.6300659179688	495.823974609375	243.4599609375	598.00830078125	405.2595825195312	40.13111877441406	763.0956420898438	373.6950988769531	43.01973342895508	682.03955078125	478.8969116210938	38.82810211181641	672.7703247070312	408.7332763671875	37.05957412719727	509.0219116210938	183.2774963378906	472.2037658691406	650.1476440429688	161.739013671875	733.1355590820312	701.5150146484375	227.8872222900391	50.95992660522461	602.51416015625	199.1346130371094	347.1716918945312	656.0823974609375	284.2738342285156	38.87373733520508	784.3224487304688	317.2835693359375	43.0510139465332	710.5457763671875	218.2579040527344	43.16775131225586	686.9964599609375	284.2424621582031	38.99014282226562	532.252197265625	
543	5.42	269.5749816894531	987.9781494140625	549.3933715820312	400.607666015625	980.51953125	540.7998046875	332.321533203125	1053.69091796875	547.23876953125	334.90966796875	1213.32568359375	781.3055419921875	335.3456420898438	1156.547729492188	536.5941162109375	345.1494445800781	1407.037231445312	565.6887817382812	335.47021484375	1331.955078125	726.2711791992188	275.4490051269531	1259.715942382812	525.3839721679688	448.4933166503906	1370.035400390625	556.1958618164062	493.7501831054688	1389.251953125	644.081787109375	569.132568359375	1274.25	636.4964599609375	597.3519897460938	1083.279663085938	690.8519287109375	541.3596801757812	1051.01171875	634.26171875	551.7799072265625	882.6474609375	812.3444213867188	619.239501953125	865.476318359375	769.1881103515625	607.8104858398438	982.9811401367188	724.92333984375	559.532958984375	705.0368041992188	836.3656005859375	612.2593383789062	782.290771484375	794.9069213867188	572.517333984375	790.0245971679688	844.0476684570312	185.4495391845703	1387.10693359375	623.3657836914062	125.6055221557617	1320.5556640625	616.8023681640625	76.47164154052734	1067.68310546875	688.3143310546875	164.6473999023438	1047.221801757812	660.90966796875	111.9650268554688	891.926025390625	867.684814453125	48.34650039672852	873.0910034179688	835.2910766601562	62.08764266967773	1012.734069824219	731.4866333007812	110.4816818237305	723.2078247070312	910.4205932617188	93.37564849853516	794.830322265625	913.7643432617188	48.47407150268555	787.5333862304688	863.1588745117188	258.8701171875	1591.890747070312	591.7322998046875	394.1381225585938	1611.672485351562	734.872314453125	273.2640991210938	1614.837890625	723.2783813476562	417.5104675292969	1584.73681640625	589.2467651367188	515.4631958007812	966.6480712890625	624.8981323242188	157.8143615722656	962.5143432617188	635.4703369140625	216.8041229248047	970.1153564453125	767.8829345703125	479.0404052734375	964.6596069335938	742.3837890625	500.6746826171875	473.6635437011719	651.6832885742188	510.78076171875	616.4075927734375	650.4619140625	465.6011352539062	40.09305191040039	546.609375	495.9104614257812	243.4379272460938	597.8392944335938	405.2832641601562	40.14698028564453	763.0856323242188	373.6346435546875	42.99936676025391	682.022705078125	478.9213256835938	38.82689666748047	672.763427734375	408.7483215332031	37.02889251708984	509.0126953125	183.3726654052734	472.1787414550781	650.1876831054688	161.9782104492188	733.0933837890625	701.8528442382812	227.9586944580078	50.98273086547852	602.5179443359375	199.2672729492188	347.1473388671875	656.114501953125	284.2831420898438	38.86532974243164	784.3457641601562	317.3196716308594	43.014404296875	710.5507202148438	218.2997131347656	43.17867279052734	686.9950561523438	284.2797546386719	38.99474334716797	532.2346801757812	
